<svg xmlns="http://www.w3.org/2000/svg" viewBox="0 0 64 64" width="64" height="64">
  <circle cx="32" cy="32" r="30" fill="#fde2d0"/>
  <path d="M8 30 Q14 8 32 6 Q50 8 56 30 Q48 22 38 22 Q32 22 28 28 Q22 22 14 24 Q10 26 8 30 Z" fill="#e89a3c"/>
  <path d="M6 30 Q2 50 12 58" stroke="#e89a3c" stroke-width="8" fill="none" stroke-linecap="round"/>
  <path d="M58 30 Q62 50 52 58" stroke="#e89a3c" stroke-width="8" fill="none" stroke-linecap="round"/>
  <circle cx="32" cy="6" r="5" fill="#e89a3c"/>
  <circle cx="32" cy="3" r="2.5" fill="#ff8fab"/>
  <ellipse cx="22" cy="34" rx="5" ry="6" fill="#ffffff"/>
  <ellipse cx="42" cy="34" rx="5" ry="6" fill="#ffffff"/>
  <circle cx="22" cy="35" r="4" fill="#2a8edb"/>
  <circle cx="42" cy="35" r="4" fill="#2a8edb"/>
  <circle cx="22" cy="35" r="2" fill="#0d3f6b"/>
  <circle cx="42" cy="35" r="2" fill="#0d3f6b"/>
  <circle cx="23" cy="33.5" r="1.2" fill="#ffffff"/>
  <circle cx="43" cy="33.5" r="1.2" fill="#ffffff"/>
  <circle cx="14" cy="44" r="4" fill="#ffb3c1" opacity="0.7"/>
  <circle cx="50" cy="44" r="4" fill="#ffb3c1" opacity="0.7"/>
  <path d="M24 48 Q32 54 40 48" stroke="#c14a6a" stroke-width="2.2" fill="none" stroke-linecap="round"/>
</svg>
